<svg width="184" height="35" viewBox="0 0 184 35" fill="none" xmlns="http://www.w3.org/2000/svg">
<path d="M23.65 10.715C23.65 12.1617 23.2533 13.4567 22.46 14.6C21.6667 15.72 20.5817 16.6533 19.205 17.4C20.0917 18.0067 20.7917 18.7533 21.305 19.64C21.8417 20.5033 22.11 21.46 22.11 22.51C22.11 23.77 21.725 25.0183 20.955 26.255C20.2083 27.4683 19.205 28.5533 17.945 29.51C16.685 30.4433 15.25 31.2017 13.64 31.785C12.03 32.3683 10.385 32.66 8.70498 32.66C6.88499 32.66 5.28665 32.31 3.90999 31.61C2.55665 30.9333 1.49499 29.965 0.724985 28.705C0.958318 28.005 1.26165 27.1417 1.63499 26.115C2.03165 25.065 2.46332 23.9683 2.92999 22.825C3.39665 21.6583 3.86332 20.5033 4.32998 19.36C4.81998 18.2167 5.27498 17.19 5.69499 16.28C6.58165 14.2967 7.37499 12.6517 8.07499 11.345C8.77499 10.0383 9.41665 9 9.99998 8.23C8.71665 8.62667 7.54999 9.08167 6.49999 9.595C5.44999 10.085 4.67999 10.5633 4.18999 11.03C3.97999 10.89 3.75832 10.68 3.52498 10.4C3.31499 10.12 3.10499 9.81667 2.89499 9.49C2.70832 9.14 2.54499 8.79 2.40499 8.44C2.28832 8.09 2.21832 7.775 2.19498 7.495C2.80165 7.075 3.58332 6.67833 4.53999 6.305C5.51999 5.90833 6.58165 5.57 7.72499 5.29C8.86832 5.01 10.035 4.78833 11.225 4.625C12.4383 4.46167 13.5933 4.38 14.69 4.38C17.49 4.38 19.6833 4.94 21.27 6.06C22.8567 7.18 23.65 8.73167 23.65 10.715ZM10.315 19.08C9.87165 18.87 9.46332 18.555 9.08999 18.135C8.55332 19.325 8.03999 20.4917 7.54999 21.635C7.08332 22.7783 6.66332 23.84 6.28998 24.82C5.91665 25.8 5.61332 26.6517 5.37998 27.375C5.14665 28.0983 5.01832 28.6233 4.99498 28.95C5.32165 29.1367 5.70665 29.2767 6.14999 29.37C6.61665 29.4633 7.18832 29.51 7.86499 29.51C9.45165 29.51 10.9683 29.2883 12.415 28.845C13.8617 28.4017 15.1333 27.8067 16.23 27.06C17.3267 26.29 18.2017 25.415 18.855 24.435C19.5083 23.455 19.835 22.4283 19.835 21.355C19.835 19.815 19.17 18.7067 17.84 18.03C16.02 18.7767 13.9667 19.15 11.68 19.15C11.3533 19.15 11.0967 19.15 10.91 19.15C10.7467 19.15 10.5483 19.1267 10.315 19.08ZM17.105 6.935C16.615 6.935 16.09 6.97 15.53 7.04C14.9933 7.08667 14.4217 7.16833 13.815 7.285C13.9083 7.37833 13.9783 7.48333 14.025 7.6C14.095 7.69333 14.1533 7.79833 14.2 7.915C13.99 8.195 13.7333 8.60333 13.43 9.14C13.1267 9.67667 12.7883 10.3067 12.415 11.03C12.0417 11.73 11.645 12.5117 11.225 13.375C10.8283 14.2383 10.42 15.125 9.99998 16.035C10.3967 15.9417 10.875 15.8717 11.435 15.825C12.0183 15.755 12.59 15.72 13.15 15.72C13.4533 15.72 13.745 15.7317 14.025 15.755C14.3283 15.7783 14.62 15.8133 14.9 15.86C16.02 15.6733 17.0233 15.405 17.91 15.055C18.82 14.6817 19.6017 14.2617 20.255 13.795C20.9083 13.305 21.41 12.7683 21.76 12.185C22.11 11.6017 22.285 10.9833 22.285 10.33C22.285 9.21 21.8417 8.37 20.955 7.81C20.0683 7.22667 18.785 6.935 17.105 6.935ZM33.2012 29.23C32.7578 28.8567 32.4545 28.39 32.2912 27.83C32.1512 27.27 32.0812 26.7917 32.0812 26.395C32.0812 25.905 32.1395 25.485 32.2562 25.135C32.1628 25.135 31.9528 25.3217 31.6262 25.695C31.2995 26.0683 30.9378 26.5117 30.5412 27.025C30.1678 27.5383 29.7945 28.04 29.4212 28.53C29.0478 29.02 28.7678 29.3817 28.5812 29.615C28.2778 29.9417 27.9862 30.1983 27.7062 30.385C27.4495 30.5717 27.2395 30.6767 27.0762 30.7C26.7028 30.6767 26.3062 30.595 25.8862 30.455C25.4895 30.3383 25.1045 30.1633 24.7312 29.93C24.3812 29.6967 24.0662 29.4167 23.7862 29.09C23.5295 28.7633 23.3545 28.39 23.2612 27.97C23.2612 27.3167 23.2728 26.78 23.2962 26.36C23.3428 25.94 23.4245 25.485 23.5412 24.995C23.7512 24.1083 24.0545 23.105 24.4512 21.985C24.8712 20.865 25.3495 19.7683 25.8862 18.695C26.4228 17.5983 27.0178 16.5833 27.6712 15.65C28.3478 14.6933 29.0595 13.9467 29.8062 13.41C30.0162 13.41 30.2612 13.4333 30.5412 13.48C30.8212 13.5033 31.1012 13.5617 31.3812 13.655C31.6845 13.7483 31.9645 13.865 32.2212 14.005C32.5012 14.1217 32.7345 14.285 32.9212 14.495C32.7112 14.7283 32.1745 15.51 31.3112 16.84C30.4712 18.17 29.5262 20.0833 28.4762 22.58C28.3595 22.8367 28.2195 23.21 28.0562 23.7C27.8928 24.19 27.7295 24.7033 27.5662 25.24C27.4028 25.7767 27.2628 26.3017 27.1462 26.815C27.0528 27.3283 27.0062 27.7367 27.0062 28.04C27.0062 28.2267 27.0295 28.3667 27.0762 28.46C27.1462 28.5533 27.2045 28.6233 27.2512 28.67C27.6012 28.53 28.0445 28.145 28.5812 27.515C29.1178 26.885 29.8645 25.9167 30.8212 24.61C31.0545 24.2833 31.3228 23.91 31.6262 23.49C31.9528 23.07 32.2795 22.6267 32.6062 22.16C32.9328 21.67 33.2362 21.1683 33.5162 20.655C33.8195 20.1417 34.0645 19.6283 34.2512 19.115C34.3445 18.835 34.4612 18.5083 34.6012 18.135C34.7645 17.7383 34.9512 17.33 35.1612 16.91C35.3945 16.49 35.6512 16.07 35.9312 15.65C36.2345 15.2067 36.5845 14.7983 36.9812 14.425C37.2845 14.425 37.6112 14.46 37.9612 14.53C38.3112 14.6 38.6378 14.6933 38.9412 14.81C39.2678 14.9033 39.5478 15.02 39.7812 15.16C40.0145 15.2767 40.1895 15.405 40.3062 15.545C39.8862 16.5717 39.4195 17.5867 38.9062 18.59C38.3928 19.5933 37.9145 20.585 37.4712 21.565C37.0278 22.5217 36.6545 23.4783 36.3512 24.435C36.0478 25.3917 35.8962 26.325 35.8962 27.235C35.8962 27.725 35.9312 28.1567 36.0012 28.53C36.0945 28.88 36.1878 29.1833 36.2812 29.44C36.3745 29.6733 36.4562 29.8717 36.5262 30.035C36.6195 30.1983 36.6662 30.3383 36.6662 30.455C36.6662 30.4783 36.6428 30.5133 36.5962 30.56C36.5728 30.5833 36.5495 30.595 36.5262 30.595C36.3628 30.595 36.1528 30.56 35.8962 30.49C35.6395 30.42 35.3478 30.315 35.0212 30.175C34.7178 30.0583 34.4028 29.9183 34.0762 29.755C33.7728 29.5917 33.4812 29.4167 33.2012 29.23ZM47.8044 13.655C48.271 13.655 48.8077 13.795 49.4144 14.075C50.021 14.355 50.5577 14.7167 51.0244 15.16C50.9077 14.2267 50.756 13.3517 50.5694 12.535C50.406 11.695 50.1494 10.8317 49.7994 9.945C49.4727 9.05833 49.0294 8.09 48.4694 7.04C47.9094 5.99 47.2094 4.78833 46.3694 3.435C46.4394 3.225 46.591 2.98 46.8244 2.7C47.081 2.42 47.361 2.16333 47.6644 1.93C47.991 1.67333 48.3177 1.45167 48.6444 1.265C48.9944 1.07833 49.321 0.961665 49.6244 0.914999C50.2777 1.63833 50.896 2.54833 51.4794 3.645C52.0627 4.71833 52.576 5.885 53.0194 7.145C53.4627 8.38167 53.801 9.665 54.0344 10.995C54.291 12.325 54.4194 13.5967 54.4194 14.81C54.4194 16.0233 54.2794 17.2717 53.9994 18.555C53.7427 19.8383 53.3694 21.0983 52.8794 22.335C52.4127 23.5483 51.8644 24.7033 51.2344 25.8C50.6044 26.8967 49.916 27.8767 49.1694 28.74C48.446 29.6033 47.6877 30.3033 46.8944 30.84C46.101 31.4 45.3077 31.75 44.5144 31.89C42.9044 31.7033 41.6677 31.1783 40.8044 30.315C39.9644 29.475 39.5444 28.3083 39.5444 26.815C39.5444 26.0217 39.661 25.1583 39.8944 24.225C40.151 23.2917 40.4777 22.37 40.8744 21.46C41.2944 20.5267 41.7727 19.6283 42.3094 18.765C42.8694 17.8783 43.4527 17.085 44.0594 16.385C44.6894 15.685 45.3194 15.09 45.9494 14.6C46.5794 14.11 47.1977 13.795 47.8044 13.655ZM44.2344 30.49C45.051 30.21 45.8677 29.5917 46.6844 28.635C47.501 27.6783 48.236 26.5583 48.8894 25.275C49.5427 23.9683 50.0677 22.58 50.4644 21.11C50.8844 19.6167 51.0944 18.1817 51.0944 16.805C51.0944 16.4083 51.0944 16.1633 51.0944 16.07C51.0944 15.9767 51.0827 15.8833 51.0594 15.79C50.4994 16.0233 49.9044 16.42 49.2744 16.98C48.6444 17.54 48.0144 18.1933 47.3844 18.94C46.7544 19.6633 46.1594 20.4567 45.5994 21.32C45.0394 22.1833 44.5377 23.0467 44.0944 23.91C43.651 24.7733 43.301 25.6017 43.0444 26.395C42.7877 27.1883 42.6594 27.8883 42.6594 28.495C42.6594 29.6617 43.1844 30.3267 44.2344 30.49ZM66.726 15.86C66.9593 15.86 67.2276 15.9067 67.531 16C67.8576 16.07 68.1493 16.175 68.406 16.315C68.6626 16.4317 68.8726 16.56 69.036 16.7C69.2226 16.84 69.316 16.9683 69.316 17.085C68.8493 18.065 68.4176 19.0567 68.021 20.06C67.6243 21.04 67.286 21.985 67.006 22.895C66.726 23.805 66.5043 24.6567 66.341 25.45C66.201 26.2433 66.131 26.9317 66.131 27.515C66.131 28.1683 66.201 28.7167 66.341 29.16C66.481 29.58 66.7143 29.8833 67.041 30.07C66.761 30.2567 66.3993 30.4083 65.956 30.525C65.5126 30.6417 65.116 30.7 64.766 30.7C63.506 30.7 62.876 29.8367 62.876 28.11C62.876 26.78 63.3193 24.96 64.206 22.65C63.7393 23.7233 63.2026 24.7383 62.596 25.695C61.9893 26.6283 61.371 27.4567 60.741 28.18C60.111 28.9033 59.4693 29.4983 58.816 29.965C58.186 30.4083 57.6026 30.6767 57.066 30.77C56.2026 30.7233 55.5026 30.315 54.966 29.545C54.4293 28.7517 54.161 27.7483 54.161 26.535C54.161 25.2283 54.441 23.8517 55.001 22.405C55.561 20.9583 56.2726 19.6167 57.136 18.38C58.0226 17.1433 58.9793 16.1167 60.006 15.3C61.0326 14.46 62.0243 14.0167 62.981 13.97C63.2143 14.04 63.471 14.18 63.751 14.39C64.0543 14.6 64.3343 14.845 64.591 15.125C64.871 15.405 65.1043 15.6967 65.291 16C65.4776 16.28 65.5826 16.525 65.606 16.735C64.6726 16.875 63.7043 17.33 62.701 18.1C61.721 18.87 60.8226 19.8033 60.006 20.9C59.2126 21.9733 58.5593 23.1283 58.046 24.365C57.5326 25.6017 57.276 26.7567 57.276 27.83C57.276 28.2733 57.4393 28.5533 57.766 28.67C58.4426 28.53 59.2243 27.9583 60.111 26.955C60.9976 25.9283 62.071 24.3533 63.331 22.23C63.5643 21.81 63.821 21.3433 64.101 20.83C64.4043 20.3167 64.7076 19.78 65.011 19.22C65.3143 18.66 65.606 18.1 65.886 17.54C66.1893 16.9567 66.4693 16.3967 66.726 15.86ZM70.4964 26.71C70.4964 25.87 70.7064 24.7033 71.1264 23.21C71.5697 21.7167 72.1414 20.0833 72.8414 18.31C73.5414 16.5367 74.3347 14.705 75.2214 12.815C76.1081 10.925 76.9947 9.16333 77.8814 7.53C78.7914 5.89667 79.6547 4.485 80.4714 3.295C81.3114 2.105 82.0231 1.3 82.6064 0.879999C82.9331 0.903332 83.2831 1.04333 83.6564 1.3C84.0531 1.55667 84.4147 1.87167 84.7414 2.245C85.0681 2.595 85.3364 2.96833 85.5464 3.365C85.7797 3.76167 85.8964 4.12333 85.8964 4.45C84.8464 5.29 83.7731 6.375 82.6764 7.705C81.6031 9.01167 80.5764 10.4583 79.5964 12.045C78.6164 13.6083 77.7064 15.2767 76.8664 17.05C76.0497 18.8 75.3614 20.5267 74.8014 22.23C75.5481 20.9467 76.3297 19.78 77.1464 18.73C77.9631 17.68 78.7797 16.7817 79.5964 16.035C80.4131 15.2883 81.2064 14.7167 81.9764 14.32C82.7697 13.9 83.5164 13.6783 84.2164 13.655C85.2431 14.4017 85.7564 15.3933 85.7564 16.63C85.7564 17.3767 85.6047 18.135 85.3014 18.905C84.9981 19.6517 84.5897 20.3517 84.0764 21.005C83.5864 21.635 83.0147 22.1833 82.3614 22.65C81.7314 23.0933 81.0664 23.385 80.3664 23.525C80.5997 24.3417 80.8914 25.17 81.2414 26.01C81.6147 26.85 82.0464 27.6667 82.5364 28.46C83.0497 29.2533 83.6214 29.9883 84.2514 30.665C84.9047 31.3417 85.6397 31.9133 86.4564 32.38C86.3397 32.6133 86.1647 32.8467 85.9314 33.08C85.6981 33.3133 85.4181 33.5117 85.0914 33.675C84.7647 33.8617 84.4031 34.0017 84.0064 34.095C83.6331 34.2117 83.2597 34.27 82.8864 34.27C82.2564 34.27 81.6614 33.955 81.1014 33.325C80.5647 32.695 80.0747 31.785 79.6314 30.595C79.2814 29.6383 78.9431 28.495 78.6164 27.165C78.2897 25.835 77.9981 24.4467 77.7414 23C78.0681 22.79 78.4764 22.4867 78.9664 22.09C79.4564 21.67 79.9697 21.1917 80.5064 20.655C82.5597 18.6717 83.5864 16.9567 83.5864 15.51C83.5864 15.3233 83.4581 15.23 83.2014 15.23C82.7347 15.2533 82.1864 15.475 81.5564 15.895C80.9264 16.315 80.2497 16.8983 79.5264 17.645C78.8264 18.3917 78.1031 19.2667 77.3564 20.27C76.6331 21.2733 75.9331 22.3583 75.2564 23.525C74.9764 23.9917 74.7197 24.5283 74.4864 25.135C74.2531 25.7417 74.0431 26.3717 73.8564 27.025C73.6931 27.655 73.5647 28.285 73.4714 28.915C73.3781 29.545 73.3314 30.1283 73.3314 30.665C73.3314 30.9917 73.3664 31.26 73.4364 31.47C72.7131 31.4 72.2697 31.2133 72.1064 30.91C71.9197 30.63 71.7564 30.3967 71.6164 30.21C71.4997 30.0467 71.3714 29.9067 71.2314 29.79C71.0214 29.6267 70.8464 29.2767 70.7064 28.74C70.5664 28.2033 70.4964 27.5267 70.4964 26.71ZM119.458 11.135C119.458 12.4183 119.131 13.6433 118.478 14.81C117.848 15.9767 116.985 17.0033 115.888 17.89C114.815 18.7533 113.543 19.4417 112.073 19.955C110.626 20.4683 109.086 20.725 107.453 20.725C106.87 20.725 106.403 20.655 106.053 20.515C105.726 20.3517 105.353 20.0483 104.933 19.605C103.766 22.1483 102.81 24.4933 102.063 26.64C101.34 28.7633 100.768 30.8283 100.348 32.835C99.4614 32.625 98.7381 32.2517 98.1781 31.715C97.6181 31.2017 97.1048 30.5483 96.6381 29.755C96.8714 29.3117 97.1514 28.7283 97.4781 28.005C97.8048 27.2817 98.2014 26.395 98.6681 25.345C99.1348 24.2717 99.6714 23 100.278 21.53C100.908 20.0367 101.643 18.2983 102.483 16.315C102.856 15.405 103.183 14.6117 103.463 13.935C103.743 13.2583 103.988 12.6283 104.198 12.045C104.408 11.4383 104.595 10.8433 104.758 10.26C104.945 9.67667 105.131 9.035 105.318 8.335C104.221 8.685 103.206 9.09333 102.273 9.56C101.363 10.0267 100.605 10.5167 99.9981 11.03C99.7881 10.89 99.5664 10.68 99.3331 10.4C99.1231 10.12 98.9248 9.81667 98.7381 9.49C98.5514 9.14 98.3881 8.79 98.2481 8.44C98.1081 8.09 98.0264 7.775 98.0031 7.495C98.6798 7.02833 99.5198 6.59667 100.523 6.2C101.526 5.80333 102.6 5.465 103.743 5.185C104.886 4.88166 106.065 4.64833 107.278 4.485C108.515 4.32166 109.693 4.24 110.813 4.24C112.143 4.24 113.345 4.415 114.418 4.765C115.491 5.09167 116.401 5.55833 117.148 6.165C117.895 6.77167 118.466 7.495 118.863 8.335C119.26 9.175 119.458 10.1083 119.458 11.135ZM113.228 6.935C112.341 6.935 111.431 7.005 110.498 7.145L110.918 7.775C110.685 8.07833 110.393 8.53333 110.043 9.14C109.693 9.74667 109.308 10.4817 108.888 11.345C108.468 12.185 108.001 13.13 107.488 14.18C106.998 15.23 106.473 16.3383 105.913 17.505C107.733 17.505 109.39 17.3417 110.883 17.015C112.376 16.665 113.648 16.1983 114.698 15.615C115.771 15.0083 116.6 14.3083 117.183 13.515C117.79 12.7217 118.093 11.87 118.093 10.96C118.093 9.74667 117.685 8.77833 116.868 8.055C116.051 7.30833 114.838 6.935 113.228 6.935ZM116.967 27.655C116.967 27.445 116.979 27.1883 117.002 26.885C117.049 26.5583 117.119 26.1383 117.212 25.625C117.306 25.0883 117.422 24.4467 117.562 23.7C117.726 22.9533 117.924 22.055 118.157 21.005C118.204 20.7717 118.309 20.3983 118.472 19.885C118.636 19.3717 118.846 18.835 119.102 18.275C119.382 17.6917 119.709 17.1317 120.082 16.595C120.479 16.0583 120.946 15.6617 121.482 15.405C121.879 15.4983 122.404 15.7433 123.057 16.14C123.711 16.5133 124.271 17.0383 124.737 17.715C124.201 18.3217 123.746 18.9283 123.372 19.535C123.022 20.1417 122.696 20.7717 122.392 21.425C122.112 22.0783 121.844 22.755 121.587 23.455C121.354 24.155 121.086 24.89 120.782 25.66C120.526 26.3133 120.292 26.99 120.082 27.69C119.872 28.3667 119.756 28.9617 119.732 29.475C119.732 29.895 119.721 30.1867 119.697 30.35C119.697 30.5367 119.639 30.63 119.522 30.63C119.429 30.63 119.242 30.5717 118.962 30.455C118.682 30.3383 118.391 30.1633 118.087 29.93C117.807 29.6733 117.551 29.3583 117.317 28.985C117.084 28.6117 116.967 28.1683 116.967 27.655ZM123.652 12.465C123.652 12.325 123.687 12.115 123.757 11.835C123.641 11.7183 123.536 11.5433 123.442 11.31C123.372 11.0767 123.337 10.8667 123.337 10.68C123.337 10.47 123.361 10.19 123.407 9.84C123.477 9.46667 123.559 9.07 123.652 8.65C123.746 8.23 123.862 7.79833 124.002 7.355C124.142 6.88833 124.282 6.46833 124.422 6.095C124.702 6.095 125.041 6.17667 125.437 6.34C125.857 6.48 126.277 6.67833 126.697 6.935C127.117 7.16833 127.502 7.43667 127.852 7.74C128.202 8.02 128.471 8.28833 128.657 8.545C128.401 8.80166 128.062 9.16333 127.642 9.63C127.222 10.0733 126.814 10.5517 126.417 11.065C126.021 11.555 125.659 12.0217 125.332 12.465C125.006 12.9083 124.796 13.2233 124.702 13.41C124.422 13.3633 124.177 13.2467 123.967 13.06C123.757 12.85 123.652 12.6517 123.652 12.465ZM130.209 13.025C130.816 13.2117 131.387 13.6317 131.924 14.285C132.461 14.915 132.857 15.615 133.114 16.385C132.857 17.015 132.461 17.7733 131.924 18.66C131.387 19.5467 130.851 20.4567 130.314 21.39C129.777 22.3 129.287 23.175 128.844 24.015C128.424 24.8317 128.179 25.5083 128.109 26.045C128.482 25.6483 128.891 25.1933 129.334 24.68C129.801 24.1433 130.244 23.6183 130.664 23.105C131.107 22.5683 131.516 22.09 131.889 21.67C132.262 21.2267 132.554 20.9 132.764 20.69C133.207 20.2233 133.732 19.6867 134.339 19.08C134.946 18.45 135.576 17.8667 136.229 17.33C136.906 16.77 137.582 16.3033 138.259 15.93C138.936 15.5333 139.554 15.335 140.114 15.335C140.721 15.335 141.222 15.545 141.619 15.965C142.039 16.3617 142.366 16.7817 142.599 17.225C142.599 17.2717 142.506 17.3417 142.319 17.435C142.156 17.505 141.911 17.7267 141.584 18.1C141.257 18.52 140.884 19.1033 140.464 19.85C140.067 20.5733 139.671 21.3667 139.274 22.23C138.901 23.07 138.586 23.9333 138.329 24.82C138.072 25.7067 137.944 26.5117 137.944 27.235C137.944 27.8183 138.014 28.1917 138.154 28.355C138.317 28.5183 138.539 28.6 138.819 28.6C139.076 28.6 139.344 28.5417 139.624 28.425C139.904 28.3083 140.126 28.25 140.289 28.25C140.382 28.2967 140.452 28.4017 140.499 28.565C140.569 28.705 140.604 28.8333 140.604 28.95C140.417 29.1133 140.196 29.2767 139.939 29.44C139.682 29.6033 139.414 29.755 139.134 29.895C138.854 30.035 138.574 30.1517 138.294 30.245C138.037 30.3383 137.804 30.385 137.594 30.385C136.917 30.385 136.357 30.28 135.914 30.07C135.494 29.8833 135.156 29.6267 134.899 29.3C134.666 28.9733 134.502 28.5883 134.409 28.145C134.316 27.6783 134.269 27.1883 134.269 26.675C134.269 26.395 134.292 26.08 134.339 25.73C134.386 25.38 134.479 24.9717 134.619 24.505C134.759 24.015 134.957 23.4433 135.214 22.79C135.471 22.1133 135.797 21.3083 136.194 20.375C136.147 20.375 135.832 20.5383 135.249 20.865C134.666 21.1917 134.036 21.6933 133.359 22.37C132.262 23.42 131.271 24.4583 130.384 25.485C129.521 26.5117 128.634 27.655 127.724 28.915C127.211 29.6383 126.756 30.245 126.359 30.735C125.986 31.2483 125.659 31.5867 125.379 31.75C124.889 31.47 124.527 31.0733 124.294 30.56C124.061 30.07 123.886 29.5567 123.769 29.02C123.769 28.5767 123.827 28.0167 123.944 27.34C124.084 26.6633 124.259 25.9167 124.469 25.1C124.702 24.26 124.982 23.385 125.309 22.475C125.636 21.565 125.997 20.655 126.394 19.745C127.281 17.6917 128.086 16.0817 128.809 14.915C129.556 13.7483 130.022 13.1183 130.209 13.025ZM144.84 16.595C144.724 16.455 144.619 16.1633 144.525 15.72C144.432 15.2533 144.385 14.8567 144.385 14.53C144.992 14.5767 145.575 14.6233 146.135 14.67C146.695 14.6933 147.209 14.7167 147.675 14.74C148.025 14.04 148.399 13.3517 148.795 12.675C149.215 11.975 149.612 11.345 149.985 10.785C150.382 10.2017 150.744 9.71167 151.07 9.315C151.42 8.91833 151.689 8.66167 151.875 8.545C152.109 8.545 152.4 8.59167 152.75 8.685C153.124 8.755 153.497 8.86 153.87 9C154.244 9.11667 154.582 9.245 154.885 9.385C155.189 9.525 155.399 9.665 155.515 9.805C154.815 10.6917 154.209 11.52 153.695 12.29C153.205 13.0367 152.669 13.9 152.085 14.88C152.552 14.88 153.019 14.8683 153.485 14.845C153.975 14.8217 154.465 14.7867 154.955 14.74C155.072 14.8567 155.165 15.0083 155.235 15.195C155.305 15.3583 155.34 15.5333 155.34 15.72C154.197 16.14 152.809 16.3733 151.175 16.42C150.592 17.54 150.067 18.66 149.6 19.78C149.157 20.8767 148.772 21.9383 148.445 22.965C148.142 23.9917 147.897 24.96 147.71 25.87C147.547 26.78 147.465 27.5967 147.465 28.32C147.465 29.3467 147.85 29.9183 148.62 30.035C149.32 29.9417 149.985 29.7667 150.615 29.51C151.245 29.2533 151.805 28.9267 152.295 28.53C152.435 28.74 152.517 28.915 152.54 29.055C152.4 29.265 152.155 29.51 151.805 29.79C151.479 30.07 151.117 30.3383 150.72 30.595C150.324 30.875 149.939 31.1083 149.565 31.295C149.192 31.4817 148.912 31.5867 148.725 31.61C148.142 31.5867 147.559 31.4583 146.975 31.225C146.392 30.9917 145.855 30.7 145.365 30.35C144.899 30 144.514 29.615 144.21 29.195C143.907 28.7517 143.755 28.32 143.755 27.9C143.755 27.34 143.825 26.64 143.965 25.8C144.129 24.9367 144.35 24.0033 144.63 23C144.91 21.9967 145.237 20.9467 145.61 19.85C145.984 18.7533 146.392 17.6683 146.835 16.595H144.84ZM166.49 15.86C166.723 15.86 166.992 15.9067 167.295 16C167.622 16.07 167.913 16.175 168.17 16.315C168.427 16.4317 168.637 16.56 168.8 16.7C168.987 16.84 169.08 16.9683 169.08 17.085C168.613 18.065 168.182 19.0567 167.785 20.06C167.388 21.04 167.05 21.985 166.77 22.895C166.49 23.805 166.268 24.6567 166.105 25.45C165.965 26.2433 165.895 26.9317 165.895 27.515C165.895 28.1683 165.965 28.7167 166.105 29.16C166.245 29.58 166.478 29.8833 166.805 30.07C166.525 30.2567 166.163 30.4083 165.72 30.525C165.277 30.6417 164.88 30.7 164.53 30.7C163.27 30.7 162.64 29.8367 162.64 28.11C162.64 26.78 163.083 24.96 163.97 22.65C163.503 23.7233 162.967 24.7383 162.36 25.695C161.753 26.6283 161.135 27.4567 160.505 28.18C159.875 28.9033 159.233 29.4983 158.58 29.965C157.95 30.4083 157.367 30.6767 156.83 30.77C155.967 30.7233 155.267 30.315 154.73 29.545C154.193 28.7517 153.925 27.7483 153.925 26.535C153.925 25.2283 154.205 23.8517 154.765 22.405C155.325 20.9583 156.037 19.6167 156.9 18.38C157.787 17.1433 158.743 16.1167 159.77 15.3C160.797 14.46 161.788 14.0167 162.745 13.97C162.978 14.04 163.235 14.18 163.515 14.39C163.818 14.6 164.098 14.845 164.355 15.125C164.635 15.405 164.868 15.6967 165.055 16C165.242 16.28 165.347 16.525 165.37 16.735C164.437 16.875 163.468 17.33 162.465 18.1C161.485 18.87 160.587 19.8033 159.77 20.9C158.977 21.9733 158.323 23.1283 157.81 24.365C157.297 25.6017 157.04 26.7567 157.04 27.83C157.04 28.2733 157.203 28.5533 157.53 28.67C158.207 28.53 158.988 27.9583 159.875 26.955C160.762 25.9283 161.835 24.3533 163.095 22.23C163.328 21.81 163.585 21.3433 163.865 20.83C164.168 20.3167 164.472 19.78 164.775 19.22C165.078 18.66 165.37 18.1 165.65 17.54C165.953 16.9567 166.233 16.3967 166.49 15.86ZM169.35 29.3C169.467 28.6233 169.665 27.7367 169.945 26.64C170.249 25.52 170.599 24.3417 170.995 23.105C171.392 21.845 171.812 20.585 172.255 19.325C172.699 18.065 173.13 16.9333 173.55 15.93C173.854 15.2067 174.122 14.6467 174.355 14.25C174.589 13.83 174.845 13.48 175.125 13.2C175.452 13.2467 175.79 13.3283 176.14 13.445C176.49 13.5617 176.829 13.7017 177.155 13.865C177.482 14.0283 177.774 14.2033 178.03 14.39C178.287 14.5533 178.485 14.7167 178.625 14.88C177.995 15.6267 177.435 16.4783 176.945 17.435C176.479 18.3917 176 19.6167 175.51 21.11C176.77 19.99 177.879 18.9167 178.835 17.89C179.815 16.8633 180.725 15.72 181.565 14.46C181.705 14.3433 181.95 14.285 182.3 14.285C182.627 14.285 182.942 14.3433 183.245 14.46C183.549 14.5533 183.759 14.6933 183.875 14.88C183.455 16 183.245 17.1083 183.245 18.205C183.245 19.2317 183.397 20.0017 183.7 20.515C183.677 20.655 183.514 20.9233 183.21 21.32C182.93 21.7167 182.615 22.09 182.265 22.44C181.635 22.1133 181.075 21.67 180.585 21.11C180.095 20.5267 179.734 19.8967 179.5 19.22C178.404 19.99 177.47 20.7483 176.7 21.495C175.93 22.2183 175.265 23.035 174.705 23.945C174.169 24.8317 173.702 25.8583 173.305 27.025C172.932 28.1917 172.57 29.58 172.22 31.19C172.01 31.1667 171.754 31.085 171.45 30.945C171.17 30.8283 170.879 30.6767 170.575 30.49C170.295 30.3033 170.039 30.105 169.805 29.895C169.572 29.685 169.42 29.4867 169.35 29.3Z" fill="#EFBB4B"/>
</svg>
